<mxfile host="app.diagrams.net" modified="2024-06-22T15:53:34.027Z" agent="Mozilla/5.0 (Windows NT 10.0; Win64; x64) AppleWebKit/537.36 (KHTML, like Gecko) Chrome/126.0.0.0 Safari/537.36" etag="47YFm4EvYo2rBLV8hEa1" version="24.6.2" type="device">
  <diagram id="C5RBs43oDa-KdzZeNtuy" name="Page-1">
    <mxGraphModel dx="677" dy="342" grid="1" gridSize="10" guides="1" tooltips="1" connect="1" arrows="1" fold="1" page="1" pageScale="1" pageWidth="827" pageHeight="1169" math="0" shadow="0">
      <root>
        <mxCell id="WIyWlLk6GJQsqaUBKTNV-0" />
        <mxCell id="WIyWlLk6GJQsqaUBKTNV-1" parent="WIyWlLk6GJQsqaUBKTNV-0" />
        <mxCell id="SzPGg_zXrU4IRWqKa49A-3" value="Utente non Registrato" style="shape=umlActor;verticalLabelPosition=bottom;verticalAlign=top;html=1;" parent="WIyWlLk6GJQsqaUBKTNV-1" vertex="1">
          <mxGeometry x="190" y="90" width="30" height="60" as="geometry" />
        </mxCell>
        <mxCell id="SzPGg_zXrU4IRWqKa49A-10" value="Utente autenticato" style="shape=umlActor;verticalLabelPosition=bottom;verticalAlign=top;html=1;outlineConnect=0;" parent="WIyWlLk6GJQsqaUBKTNV-1" vertex="1">
          <mxGeometry x="180" y="400" width="30" height="60" as="geometry" />
        </mxCell>
        <mxCell id="SzPGg_zXrU4IRWqKa49A-11" value="" style="endArrow=classic;html=1;rounded=0;" parent="WIyWlLk6GJQsqaUBKTNV-1" edge="1">
          <mxGeometry width="50" height="50" relative="1" as="geometry">
            <mxPoint x="210" y="130" as="sourcePoint" />
            <mxPoint x="350" y="130" as="targetPoint" />
          </mxGeometry>
        </mxCell>
        <mxCell id="SzPGg_zXrU4IRWqKa49A-8" value="Registrazione" style="ellipse;whiteSpace=wrap;html=1;" parent="WIyWlLk6GJQsqaUBKTNV-1" vertex="1">
          <mxGeometry x="354" y="90" width="120" height="80" as="geometry" />
        </mxCell>
        <mxCell id="SzPGg_zXrU4IRWqKa49A-7" value="Autenticazione" style="ellipse;whiteSpace=wrap;html=1;" parent="WIyWlLk6GJQsqaUBKTNV-1" vertex="1">
          <mxGeometry x="354" y="190" width="120" height="80" as="geometry" />
        </mxCell>
        <mxCell id="SzPGg_zXrU4IRWqKa49A-9" value="Visione&lt;div&gt;ContabilitÃ &lt;/div&gt;" style="ellipse;whiteSpace=wrap;html=1;" parent="WIyWlLk6GJQsqaUBKTNV-1" vertex="1">
          <mxGeometry x="354" y="290" width="120" height="80" as="geometry" />
        </mxCell>
        <mxCell id="SzPGg_zXrU4IRWqKa49A-17" value="Creazione&lt;div&gt;Budget&lt;/div&gt;" style="ellipse;whiteSpace=wrap;html=1;" parent="WIyWlLk6GJQsqaUBKTNV-1" vertex="1">
          <mxGeometry x="354" y="390" width="120" height="80" as="geometry" />
        </mxCell>
        <mxCell id="SzPGg_zXrU4IRWqKa49A-18" value="Aggiunta&lt;div&gt;Spesa&lt;/div&gt;" style="ellipse;whiteSpace=wrap;html=1;" parent="WIyWlLk6GJQsqaUBKTNV-1" vertex="1">
          <mxGeometry x="354" y="490" width="120" height="80" as="geometry" />
        </mxCell>
        <mxCell id="SzPGg_zXrU4IRWqKa49A-19" value="Stampa&lt;div&gt;Registrazioni&lt;/div&gt;" style="ellipse;whiteSpace=wrap;html=1;" parent="WIyWlLk6GJQsqaUBKTNV-1" vertex="1">
          <mxGeometry x="354" y="610" width="120" height="80" as="geometry" />
        </mxCell>
        <mxCell id="FhAwSWaoa58HDU17YZmj-0" value="&lt;div&gt;&lt;br&gt;&lt;/div&gt;&lt;div&gt;&lt;br&gt;&lt;/div&gt;" style="text;html=1;align=center;verticalAlign=middle;resizable=0;points=[];autosize=1;strokeColor=none;fillColor=none;" vertex="1" parent="WIyWlLk6GJQsqaUBKTNV-1">
          <mxGeometry x="150" y="333" width="20" height="40" as="geometry" />
        </mxCell>
        <mxCell id="SzPGg_zXrU4IRWqKa49A-29" value="" style="rounded=0;whiteSpace=wrap;html=1;glass=0;shadow=0;fillColor=none;" parent="WIyWlLk6GJQsqaUBKTNV-1" vertex="1">
          <mxGeometry x="354" y="60" width="120" height="660" as="geometry" />
        </mxCell>
        <mxCell id="FhAwSWaoa58HDU17YZmj-4" value="" style="endArrow=classic;html=1;rounded=0;entryX=-0.033;entryY=0.415;entryDx=0;entryDy=0;entryPerimeter=0;" edge="1" parent="WIyWlLk6GJQsqaUBKTNV-1" target="SzPGg_zXrU4IRWqKa49A-29">
          <mxGeometry width="50" height="50" relative="1" as="geometry">
            <mxPoint x="210" y="420" as="sourcePoint" />
            <mxPoint x="260" y="370" as="targetPoint" />
          </mxGeometry>
        </mxCell>
        <mxCell id="FhAwSWaoa58HDU17YZmj-5" value="" style="endArrow=classic;html=1;rounded=0;" edge="1" parent="WIyWlLk6GJQsqaUBKTNV-1">
          <mxGeometry width="50" height="50" relative="1" as="geometry">
            <mxPoint x="210" y="420" as="sourcePoint" />
            <mxPoint x="350" y="430" as="targetPoint" />
          </mxGeometry>
        </mxCell>
        <mxCell id="FhAwSWaoa58HDU17YZmj-6" value="" style="endArrow=classic;html=1;rounded=0;" edge="1" parent="WIyWlLk6GJQsqaUBKTNV-1">
          <mxGeometry width="50" height="50" relative="1" as="geometry">
            <mxPoint x="210" y="420" as="sourcePoint" />
            <mxPoint x="350" y="530" as="targetPoint" />
          </mxGeometry>
        </mxCell>
        <mxCell id="FhAwSWaoa58HDU17YZmj-8" value="" style="endArrow=classic;html=1;rounded=0;entryX=-0.033;entryY=0.888;entryDx=0;entryDy=0;entryPerimeter=0;" edge="1" parent="WIyWlLk6GJQsqaUBKTNV-1" target="SzPGg_zXrU4IRWqKa49A-29">
          <mxGeometry width="50" height="50" relative="1" as="geometry">
            <mxPoint x="210" y="420" as="sourcePoint" />
            <mxPoint x="260" y="370" as="targetPoint" />
          </mxGeometry>
        </mxCell>
        <mxCell id="FhAwSWaoa58HDU17YZmj-9" value="Utente Registrato" style="shape=umlActor;verticalLabelPosition=bottom;verticalAlign=top;html=1;outlineConnect=0;" vertex="1" parent="WIyWlLk6GJQsqaUBKTNV-1">
          <mxGeometry x="190" y="230" width="30" height="60" as="geometry" />
        </mxCell>
        <mxCell id="FhAwSWaoa58HDU17YZmj-11" value="" style="endArrow=classic;html=1;rounded=0;entryX=-0.011;entryY=0.265;entryDx=0;entryDy=0;entryPerimeter=0;" edge="1" parent="WIyWlLk6GJQsqaUBKTNV-1" target="SzPGg_zXrU4IRWqKa49A-29">
          <mxGeometry width="50" height="50" relative="1" as="geometry">
            <mxPoint x="220" y="250" as="sourcePoint" />
            <mxPoint x="270" y="200" as="targetPoint" />
          </mxGeometry>
        </mxCell>
      </root>
    </mxGraphModel>
  </diagram>
</mxfile>
